<svg width="24" height="24" viewBox="0 0 24 24" fill="none" xmlns="http://www.w3.org/2000/svg">
<path d="M11.5312 0H12.4688L12.9141 0.024024L13.5352 0.0840841L14.0977 0.168168L14.5312 0.252252L15.1758 0.408408L15.6445 0.552553L15.9961 0.672673L16.2773 0.780781L16.6055 0.912913L16.9453 1.06907L17.2969 1.23724L17.6367 1.41742L17.7773 1.5015L17.918 1.57357L18.1172 1.69369L18.3984 1.87387L18.6562 2.04204L18.8906 2.21021L19.0547 2.33033L19.2656 2.48649L19.418 2.60661L19.5703 2.73874L19.6875 2.83483L19.8164 2.94294L19.9688 3.07508L20.3555 3.44745L20.4375 3.51952V3.54354L20.4844 3.56757L20.5547 3.65165L20.7305 3.83183L20.8125 3.92793L20.9062 4.02402L20.9883 4.12012L21.0938 4.24024L21.1992 4.37237L21.3516 4.56456L21.5156 4.76877L21.668 4.98498L21.7852 5.15315L21.9258 5.35736L22.043 5.53754L22.1836 5.76577L22.3359 6.01802L22.4648 6.24625L22.6289 6.55856L22.7344 6.75075L22.8633 7.02703L23.0039 7.33934L23.1445 7.67568L23.3555 8.25225L23.4375 8.50451L23.6016 9.06907L23.6953 9.46547L23.7891 9.8979L23.8945 10.5586L23.9531 11.1111L23.9766 11.3514L24 11.3273V13.2372L23.9883 13.2132H23.9648V13.3453L23.8828 14.1141L23.8359 14.4264L23.707 15.1111L23.6133 15.4835L23.4375 16.1081L23.2734 16.5766L23.1094 17.021L22.957 17.3574L22.8164 17.6697L22.6875 17.9459L22.5352 18.2222L22.418 18.4264L22.3477 18.5586L22.2305 18.7628L22.0547 19.027L21.9609 19.1712L21.7852 19.4354L21.668 19.6036L21.5742 19.7237L21.3164 20.0601L21.1758 20.2402L21.0703 20.3724L21 20.4565H20.9766L20.9531 20.5045L20.7656 20.7087L20.6602 20.8288L20.6133 20.8889H20.5898L20.5664 20.9369L20.332 21.1772L20.2383 21.2613L19.8633 21.6216L19.7344 21.7297L19.5352 21.8979L19.3711 22.03L19.1836 22.1862L19.0195 22.3063L18.3516 22.7628L18.0469 22.9429L17.7539 23.1111L17.4961 23.2553L17.1797 23.4114L16.793 23.5916L16.5703 23.6877L16.0664 23.8799L15.8438 23.964L15.6797 24H15.457L15.3164 23.964L15.1875 23.8799L15.082 23.7598L15.0117 23.6156L14.9766 23.4474L14.9648 23.0631V19.9279L14.9531 19.6156L14.918 19.2793L14.8594 18.979L14.7773 18.7027L14.707 18.5105L14.6133 18.3183L14.5195 18.1502L14.3672 17.9459L14.2617 17.8258L14.1797 17.7538V17.7177L14.4141 17.6817L14.9766 17.5976L15.5391 17.4775L15.832 17.4054L16.207 17.2853L16.5352 17.1532L16.875 16.997L17.0977 16.8769L17.332 16.7447L17.5781 16.5886L17.7539 16.4565L17.9531 16.3003L18.1055 16.1562L18.2227 16.048L18.3398 15.9279L18.4219 15.8318L18.5508 15.6757L18.7148 15.4354L18.832 15.2432L18.9023 15.1111L19.0312 14.8468L19.1836 14.4745L19.3359 14.018L19.4531 13.5496L19.5234 13.1772L19.5703 12.8649L19.6172 12.3483L19.6289 12.0841V11.3634L19.6055 11.0631L19.5469 10.6426L19.4648 10.2823L19.3242 9.84985L19.207 9.57357L19.1133 9.38138L18.9727 9.11712L18.8789 8.97297L18.7383 8.76877L18.6094 8.6006L18.457 8.42042L18.4219 8.37237L18.4336 8.28829L18.5391 7.96396L18.6094 7.62763L18.6445 7.37538L18.6562 7.24324V6.7027L18.6211 6.35435L18.5391 5.92192L18.4336 5.53754L18.3164 5.17718L18.2812 5.10511L18.0938 5.06907H17.8477L17.6016 5.10511L17.3672 5.16517L17.0156 5.28529L16.7344 5.40541L16.4062 5.54955L16.2188 5.63363L15.9609 5.77778L15.6562 5.94595L15.3867 6.11411L15.1875 6.24625L15 6.36637L14.8945 6.34234L14.2617 6.18619L13.6406 6.07808L13.3828 6.04204L12.9141 5.99399L12.4922 5.96997L12.1523 5.95796H11.8008L11.2148 5.98198L10.5938 6.04204L10.125 6.11411L9.67969 6.1982L9.1875 6.31832L9.04688 6.35435L8.98828 6.36637L8.78906 6.23423L8.49609 6.04204L8.32031 5.93393L7.99219 5.75375L7.69922 5.60961L7.23047 5.40541L6.90234 5.27327L6.58594 5.16517L6.28125 5.09309L6.03516 5.06907H5.90625L5.73047 5.09309L5.69531 5.10511L5.58984 5.40541L5.47266 5.82583L5.41406 6.09009L5.35547 6.46246L5.33203 6.77478V7.0991L5.35547 7.41141L5.41406 7.77177L5.49609 8.08408L5.57812 8.32432V8.38438H5.55469L5.53125 8.43243L5.42578 8.55255L5.33203 8.67267L5.21484 8.82883L5.09766 9.00901L5.01562 9.14114L4.86328 9.41742L4.74609 9.66967L4.65234 9.90991L4.54688 10.2342L4.46484 10.5706L4.41797 10.8228L4.37109 11.2432L4.35938 11.5195V11.8318L4.37109 12.2042L4.41797 12.7808L4.47656 13.1892L4.54688 13.5616L4.66406 14.018L4.80469 14.4384L4.94531 14.7868L5.09766 15.1111L5.19141 15.2793L5.30859 15.4715L5.42578 15.6396L5.54297 15.7958L5.67188 15.9399L5.75391 16.036L5.87109 16.1562L5.96484 16.2402L6 16.2643V16.2883L6.04688 16.3123L6.25781 16.4805L6.44531 16.6126L6.69141 16.7688L6.94922 16.9129L7.23047 17.0571L7.59375 17.2132L7.91016 17.3333L8.23828 17.4294L8.82422 17.5616L9.24609 17.6336L9.76172 17.7057L9.80859 17.7297L9.78516 17.7778L9.72656 17.8378L9.59766 17.982L9.52734 18.0781L9.38672 18.3183L9.29297 18.4985L9.16406 18.8709L9.05859 19.3634L9.02344 19.3994L8.75391 19.5075L8.47266 19.5916L8.17969 19.6517L7.88672 19.6877L7.71094 19.6997H7.3125L7.08984 19.6637L6.89062 19.6036L6.64453 19.4955L6.44531 19.3754L6.25781 19.2312L6.10547 19.0991L5.97656 18.967L5.87109 18.8348L5.74219 18.6667L5.61328 18.4625L5.49609 18.2703L5.36719 18.0781L5.21484 17.8979L5.03906 17.7177L4.83984 17.5616L4.65234 17.4414L4.40625 17.2973L4.24219 17.2252L4.03125 17.1532L3.73828 17.1051H3.60938L3.44531 17.1171L3.29297 17.1652L3.22266 17.2132L3.19922 17.2493L3.21094 17.3574L3.31641 17.5255L3.42188 17.6456L3.53906 17.7538L3.86719 17.97L3.99609 18.0781L4.17188 18.2462L4.27734 18.3784L4.39453 18.5345L4.65234 18.9309L4.85156 19.3273L5.00391 19.6877L5.09766 19.9159L5.17969 20.0601L5.26172 20.1922L5.39062 20.3483L5.49609 20.4685L5.625 20.5766L5.76562 20.6847L5.97656 20.8168L6.16406 20.9129L6.44531 21.021L6.70312 21.0811L7.18359 21.1532L7.65234 21.1892H8.17969L8.46094 21.1652L8.88281 21.1051L9.01172 21.0931L9.02344 21.1051L9.03516 22.5586V23.4474L9 23.6156L8.91797 23.7718L8.88281 23.8198H8.85938L8.83594 23.8679L8.71875 23.9399L8.625 23.976L8.53125 24H8.30859L8.14453 23.964L7.45312 23.6997L7.17188 23.5796L6.75 23.3754L6.42188 23.2192L6.14062 23.0511L5.85938 22.8949L5.60156 22.7387L5.27344 22.5105L4.98047 22.3063L4.85156 22.2102L4.66406 22.0541L4.5 21.9219L4.3125 21.7658L4.19531 21.6697L4.05469 21.5375L3.86719 21.3574L3.72656 21.2252L3.57422 21.0811L3.41016 20.9129L3.32812 20.8168L3.16406 20.6366L3.08203 20.5405L2.91797 20.3604L2.75391 20.1562L2.63672 20L2.48438 19.8078L2.36719 19.6517L2.22656 19.4595L2.0625 19.2072L1.81641 18.8348L1.67578 18.6066L1.5 18.2823L1.34766 18.006L1.20703 17.7297L1.01953 17.3213L0.867188 16.973L0.667969 16.4204L0.550781 16.0841L0.363281 15.3994L0.28125 15.0631L0.164062 14.4384L0.105469 14.042L0.0351562 13.4054L0.0234375 13.3333H0.0117188L0 13.2252V13.2012V11.4354L0.0117188 11.4234L0.09375 10.6306L0.1875 10.03L0.269531 9.60961L0.398438 9.05706L0.539062 8.57658L0.632812 8.27628L0.761719 7.91592L0.914062 7.51952L1.06641 7.18318L1.17188 6.94294L1.26562 6.75075L1.46484 6.36637L1.61719 6.09009L1.96875 5.51351L2.12109 5.28529L2.27344 5.06907L2.36719 4.93694L2.48438 4.76877L2.61328 4.61261L2.74219 4.44444L2.87109 4.28829L2.97656 4.15616L3.16406 3.95195L3.1875 3.91592H3.21094L3.23438 3.86787L3.33984 3.75976L3.42188 3.66366L3.64453 3.43544L3.73828 3.35135L3.82031 3.26727L3.91406 3.18318L4.10156 3.003L4.21875 2.90691L4.34766 2.7988L4.54688 2.63063L4.74609 2.47447L5.16797 2.16216L5.44922 1.96997L5.73047 1.78979L6.03516 1.5976L6.30469 1.45345L6.57422 1.2973L6.91406 1.12913L7.14844 1.02102L7.44141 0.888889L7.875 0.720721L8.20312 0.600601L8.74219 0.432432L9.21094 0.312312L9.70312 0.204204L10.3594 0.0960961L10.9219 0.036036L11.5312 0Z" fill="#ECECEC"/>
</svg>
