<svg width="24" height="24" viewBox="0 0 24 24" fill="none" xmlns="http://www.w3.org/2000/svg">
<path fill-rule="evenodd" clip-rule="evenodd" d="M2.28571 3.42857C2.28571 2.79739 2.79739 2.28571 3.42857 2.28571C4.05975 2.28571 4.57143 2.79739 4.57143 3.42857C4.57143 4.05975 4.05975 4.57143 3.42857 4.57143C2.79739 4.57143 2.28571 4.05975 2.28571 3.42857ZM3.42857 0C1.53502 0 0 1.53502 0 3.42857C0 5.32212 1.53502 6.85714 3.42857 6.85714C5.32212 6.85714 6.85714 5.32212 6.85714 3.42857C6.85714 1.53502 5.32212 0 3.42857 0ZM16 9.14286C14.4845 9.14286 13.031 9.7449 11.9594 10.8165C10.8878 11.8882 10.2857 13.3416 10.2857 14.8571V21.7143H12.5714V14.8571C12.5714 13.9478 12.9327 13.0758 13.5756 12.4328C14.2186 11.7898 15.0907 11.4286 16 11.4286C16.9093 11.4286 17.7814 11.7898 18.4244 12.4328C19.0673 13.0758 19.4286 13.9478 19.4286 14.8571V21.7143H21.7143V14.8571C21.7143 13.3416 21.1122 11.8882 20.0406 10.8165C18.969 9.7449 17.5155 9.14286 16 9.14286ZM10.3431 9.20029C11.8434 7.7 13.8783 6.85714 16 6.85714C18.1217 6.85714 20.1566 7.7 21.6569 9.20029C23.1571 10.7006 24 12.7354 24 14.8571V22.8571C24 23.4883 23.4883 24 22.8571 24H18.2857C17.6545 24 17.1429 23.4883 17.1429 22.8571V14.8571C17.1429 14.554 17.0224 14.2633 16.8081 14.049C16.5938 13.8347 16.3031 13.7143 16 13.7143C15.6969 13.7143 15.4062 13.8347 15.1919 14.049C14.9776 14.2633 14.8571 14.554 14.8571 14.8571V22.8571C14.8571 23.4883 14.3455 24 13.7143 24H9.14286C8.51167 24 8 23.4883 8 22.8571V14.8571C8 12.7354 8.84286 10.7006 10.3431 9.20029ZM0 9.14286C0 8.51167 0.511675 8 1.14286 8H5.71429C6.34547 8 6.85714 8.51167 6.85714 9.14286V22.8571C6.85714 23.4883 6.34547 24 5.71429 24H1.14286C0.511675 24 0 23.4883 0 22.8571V9.14286ZM2.28571 10.2857V21.7143H4.57143V10.2857H2.28571Z" fill="#ECECEC"/>
</svg>
